<svg width="100" height="237" viewBox="0 0 100 237" fill="none" xmlns="http://www.w3.org/2000/svg">
<g clip-path="url(#clip0)">
<path d="M47.7296 236.234C35.4461 236.234 25.8792 233.241 19.0288 227.255C12.2572 221.269 8.87134 212.782 8.87134 201.796V160.807H32.2571V201.162C32.2571 212.994 37.4934 218.909 47.9658 218.909C58.3595 218.909 63.5563 212.994 63.5563 201.162V160.807H86.5878V201.796C86.5878 212.782 83.1626 221.269 76.3122 227.255C69.5406 233.241 60.013 236.234 47.7296 236.234Z" fill="white"/>
<path d="M63.6615 117.554H84.3308V148.189C79.6064 151.218 74.1734 153.542 68.0316 155.162C61.8899 156.781 55.7482 157.591 49.6064 157.591C40.945 157.591 33.1497 155.971 26.2206 152.732C19.2915 149.422 13.8584 144.844 9.92138 138.999C5.98437 133.153 4.01587 126.533 4.01587 119.138C4.01587 111.744 5.98437 105.123 9.92138 99.278C13.8584 93.4326 19.3308 88.8901 26.3387 85.6505C33.3466 82.3404 41.26 80.6854 50.0789 80.6854C57.7954 80.6854 64.7245 81.8474 70.8663 84.1715C77.008 86.4956 82.1261 89.8408 86.2206 94.2073L71.3387 106.25C65.7482 100.757 59.0552 98.0103 51.26 98.0103C44.1734 98.0103 38.4647 99.9471 34.134 103.821C29.8033 107.624 27.6379 112.729 27.6379 119.138C27.6379 123.223 28.6222 126.885 30.5907 130.125C32.5592 133.294 35.3151 135.794 38.8584 137.625C42.4017 139.386 46.4568 140.266 51.0238 140.266C55.5119 140.266 59.7245 139.456 63.6615 137.837V117.554Z" fill="white"/>
<path d="M49.9608 77.0702C41.2206 77.0702 33.3466 75.4151 26.3387 72.1051C19.4096 68.795 13.9371 64.2173 9.92138 58.3719C5.98437 52.5265 4.01587 45.9416 4.01587 38.6172C4.01587 31.2929 5.98437 24.708 9.92138 18.8626C13.9371 13.0172 19.4096 8.43945 26.3387 5.1294C33.3466 1.81935 41.2206 0.164322 49.9608 0.164322C58.7009 0.164322 66.5356 1.81935 73.4647 5.1294C80.4726 8.43945 85.945 13.0172 89.882 18.8626C93.8978 24.708 95.9056 31.2929 95.9056 38.6172C95.9056 45.9416 93.8978 52.5265 89.882 58.3719C85.945 64.2173 80.4726 68.795 73.4647 72.1051C66.5356 75.4151 58.7009 77.0702 49.9608 77.0702ZM49.9608 59.7452C54.134 59.7452 57.9135 58.8649 61.2993 57.1042C64.6852 55.3436 67.3623 52.8786 69.3308 49.7094C71.2993 46.4698 72.2836 42.7724 72.2836 38.6172C72.2836 34.4621 71.2993 30.7999 69.3308 27.6307C67.3623 24.3911 64.6852 21.8909 61.2993 20.1303C57.9135 18.3696 54.134 17.4893 49.9608 17.4893C45.7875 17.4893 42.008 18.3696 38.6222 20.1303C35.2363 21.8909 32.5592 24.3911 30.5907 27.6307C28.6222 30.7999 27.6379 34.4621 27.6379 38.6172C27.6379 42.7724 28.6222 46.4698 30.5907 49.7094C32.5592 52.8786 35.2363 55.3436 38.6222 57.1042C42.008 58.8649 45.7875 59.7452 49.9608 59.7452Z" fill="white"/>
</g>
<defs>
<clipPath id="clip0">
<rect width="100" height="236.399" fill="white"/>
</clipPath>
</defs>
</svg>
